<mxfile host="app.diagrams.net" modified="2023-03-27T07:58:48.462Z" agent="Mozilla/5.0 (Windows NT 10.0; Win64; x64) AppleWebKit/537.36 (KHTML, like Gecko) Chrome/110.0.0.0 Safari/537.36 OPR/96.0.0.0" etag="VqdUdRoOfzVN4fUElRhA" version="21.1.0" type="google">
  <diagram name="Page-1" id="dU2wd-y8vtX00oAEeP-j">
    <mxGraphModel dx="1010" dy="550" grid="1" gridSize="10" guides="1" tooltips="1" connect="1" arrows="1" fold="1" page="1" pageScale="1" pageWidth="827" pageHeight="1169" math="0" shadow="0">
      <root>
        <mxCell id="0" />
        <mxCell id="1" parent="0" />
        <mxCell id="2UFu5slk8J8PcmMFMOJV-15" value="" style="rounded=0;whiteSpace=wrap;html=1;fillColor=none;" parent="1" vertex="1">
          <mxGeometry x="225" y="200" width="200" height="100" as="geometry" />
        </mxCell>
        <mxCell id="2UFu5slk8J8PcmMFMOJV-8" style="edgeStyle=orthogonalEdgeStyle;rounded=0;orthogonalLoop=1;jettySize=auto;html=1;exitX=0;exitY=0.5;exitDx=0;exitDy=0;exitPerimeter=0;strokeWidth=1;endArrow=none;endFill=0;" parent="1" source="2UFu5slk8J8PcmMFMOJV-2" edge="1">
          <mxGeometry relative="1" as="geometry">
            <mxPoint x="310" y="372.46478873239437" as="targetPoint" />
          </mxGeometry>
        </mxCell>
        <mxCell id="2UFu5slk8J8PcmMFMOJV-9" style="edgeStyle=orthogonalEdgeStyle;rounded=0;orthogonalLoop=1;jettySize=auto;html=1;exitX=1;exitY=0.5;exitDx=0;exitDy=0;exitPerimeter=0;entryX=0;entryY=0.5;entryDx=0;entryDy=0;entryPerimeter=0;strokeWidth=1;endArrow=none;endFill=0;" parent="1" source="2UFu5slk8J8PcmMFMOJV-2" target="2UFu5slk8J8PcmMFMOJV-4" edge="1">
          <mxGeometry relative="1" as="geometry" />
        </mxCell>
        <mxCell id="2UFu5slk8J8PcmMFMOJV-2" value="" style="pointerEvents=1;verticalLabelPosition=bottom;shadow=0;dashed=0;align=center;html=1;verticalAlign=top;shape=mxgraph.electrical.plc_ladder.contact;" parent="1" vertex="1">
          <mxGeometry x="350" y="360" width="50" height="25" as="geometry" />
        </mxCell>
        <mxCell id="2UFu5slk8J8PcmMFMOJV-11" style="edgeStyle=orthogonalEdgeStyle;rounded=0;orthogonalLoop=1;jettySize=auto;html=1;exitX=1;exitY=0.5;exitDx=0;exitDy=0;exitPerimeter=0;strokeWidth=1;endArrow=none;endFill=0;" parent="1" source="2UFu5slk8J8PcmMFMOJV-3" edge="1">
          <mxGeometry relative="1" as="geometry">
            <mxPoint x="420.04226039832747" y="372.4084644586268" as="targetPoint" />
          </mxGeometry>
        </mxCell>
        <mxCell id="2UFu5slk8J8PcmMFMOJV-12" style="edgeStyle=orthogonalEdgeStyle;rounded=0;orthogonalLoop=1;jettySize=auto;html=1;exitX=0;exitY=0.5;exitDx=0;exitDy=0;exitPerimeter=0;strokeWidth=1;endArrow=none;endFill=0;" parent="1" source="2UFu5slk8J8PcmMFMOJV-3" edge="1">
          <mxGeometry relative="1" as="geometry">
            <mxPoint x="310" y="442.6056338028169" as="targetPoint" />
          </mxGeometry>
        </mxCell>
        <mxCell id="2UFu5slk8J8PcmMFMOJV-3" value="" style="pointerEvents=1;verticalLabelPosition=bottom;shadow=0;dashed=0;align=center;html=1;verticalAlign=top;shape=mxgraph.electrical.plc_ladder.contact;" parent="1" vertex="1">
          <mxGeometry x="350" y="430" width="50" height="25" as="geometry" />
        </mxCell>
        <mxCell id="2UFu5slk8J8PcmMFMOJV-10" style="edgeStyle=orthogonalEdgeStyle;rounded=0;orthogonalLoop=1;jettySize=auto;html=1;exitX=1;exitY=0.5;exitDx=0;exitDy=0;exitPerimeter=0;entryX=0;entryY=0.5;entryDx=0;entryDy=0;entryPerimeter=0;strokeWidth=1;endArrow=none;endFill=0;" parent="1" source="2UFu5slk8J8PcmMFMOJV-4" target="2UFu5slk8J8PcmMFMOJV-5" edge="1">
          <mxGeometry relative="1" as="geometry" />
        </mxCell>
        <mxCell id="2UFu5slk8J8PcmMFMOJV-4" value="" style="pointerEvents=1;verticalLabelPosition=bottom;shadow=0;dashed=0;align=center;html=1;verticalAlign=top;shape=mxgraph.electrical.plc_ladder.not_contact;" parent="1" vertex="1">
          <mxGeometry x="440" y="360" width="50" height="25" as="geometry" />
        </mxCell>
        <mxCell id="2UFu5slk8J8PcmMFMOJV-5" value="" style="pointerEvents=1;verticalLabelPosition=bottom;shadow=0;dashed=0;align=center;html=1;verticalAlign=top;shape=mxgraph.electrical.plc_ladder.output_1;" parent="1" vertex="1">
          <mxGeometry x="560" y="360" width="50" height="25" as="geometry" />
        </mxCell>
        <mxCell id="2UFu5slk8J8PcmMFMOJV-6" value="" style="endArrow=none;html=1;rounded=0;" parent="1" edge="1">
          <mxGeometry width="50" height="50" relative="1" as="geometry">
            <mxPoint x="310" y="470" as="sourcePoint" />
            <mxPoint x="310" y="350" as="targetPoint" />
            <Array as="points" />
          </mxGeometry>
        </mxCell>
        <mxCell id="2UFu5slk8J8PcmMFMOJV-13" value="" style="endArrow=none;html=1;rounded=0;strokeWidth=1;exitX=1;exitY=0.643;exitDx=0;exitDy=0;exitPerimeter=0;entryX=1;entryY=0.348;entryDx=0;entryDy=0;entryPerimeter=0;" parent="1" source="2UFu5slk8J8PcmMFMOJV-5" target="2UFu5slk8J8PcmMFMOJV-5" edge="1">
          <mxGeometry width="50" height="50" relative="1" as="geometry">
            <mxPoint x="580" y="420" as="sourcePoint" />
            <mxPoint x="610" y="370" as="targetPoint" />
            <Array as="points">
              <mxPoint x="610" y="373" />
            </Array>
          </mxGeometry>
        </mxCell>
        <mxCell id="2UFu5slk8J8PcmMFMOJV-14" value="" style="rounded=0;whiteSpace=wrap;html=1;fillColor=none;" parent="1" vertex="1">
          <mxGeometry x="225" y="330" width="455" height="160" as="geometry" />
        </mxCell>
        <mxCell id="2UFu5slk8J8PcmMFMOJV-16" value="" style="rounded=0;whiteSpace=wrap;html=1;fillColor=none;" parent="1" vertex="1">
          <mxGeometry x="440" y="200" width="240" height="98" as="geometry" />
        </mxCell>
        <mxCell id="2UFu5slk8J8PcmMFMOJV-19" value="" style="rounded=0;whiteSpace=wrap;html=1;fillColor=none;" parent="1" vertex="1">
          <mxGeometry x="265" y="218" width="50" height="60" as="geometry" />
        </mxCell>
        <mxCell id="2UFu5slk8J8PcmMFMOJV-20" value="" style="endArrow=none;html=1;rounded=0;strokeWidth=1;entryX=0;entryY=0.25;entryDx=0;entryDy=0;exitX=1;exitY=0.25;exitDx=0;exitDy=0;" parent="1" source="2UFu5slk8J8PcmMFMOJV-19" target="2UFu5slk8J8PcmMFMOJV-19" edge="1">
          <mxGeometry width="50" height="50" relative="1" as="geometry">
            <mxPoint x="315" y="238" as="sourcePoint" />
            <mxPoint x="275" y="238" as="targetPoint" />
          </mxGeometry>
        </mxCell>
        <mxCell id="2UFu5slk8J8PcmMFMOJV-21" value="&amp;amp;" style="text;html=1;strokeColor=none;fillColor=none;align=center;verticalAlign=middle;whiteSpace=wrap;rounded=0;" parent="1" vertex="1">
          <mxGeometry x="260" y="210" width="60" height="30" as="geometry" />
        </mxCell>
        <mxCell id="2UFu5slk8J8PcmMFMOJV-22" value="" style="endArrow=none;html=1;rounded=0;strokeWidth=1;exitX=0;exitY=0.5;exitDx=0;exitDy=0;" parent="1" source="2UFu5slk8J8PcmMFMOJV-19" edge="1">
          <mxGeometry width="50" height="50" relative="1" as="geometry">
            <mxPoint x="295" y="338" as="sourcePoint" />
            <mxPoint x="245" y="248" as="targetPoint" />
          </mxGeometry>
        </mxCell>
        <mxCell id="2UFu5slk8J8PcmMFMOJV-23" value="" style="endArrow=none;html=1;rounded=0;strokeWidth=1;" parent="1" edge="1">
          <mxGeometry width="50" height="50" relative="1" as="geometry">
            <mxPoint x="245" y="268" as="sourcePoint" />
            <mxPoint x="265" y="268" as="targetPoint" />
          </mxGeometry>
        </mxCell>
        <mxCell id="2UFu5slk8J8PcmMFMOJV-24" value="" style="rounded=0;whiteSpace=wrap;html=1;fillColor=none;" parent="1" vertex="1">
          <mxGeometry x="335" y="248" width="50" height="30" as="geometry" />
        </mxCell>
        <mxCell id="2UFu5slk8J8PcmMFMOJV-25" value="" style="endArrow=none;html=1;rounded=0;strokeWidth=1;" parent="1" edge="1">
          <mxGeometry width="50" height="50" relative="1" as="geometry">
            <mxPoint x="335" y="268" as="sourcePoint" />
            <mxPoint x="315" y="268" as="targetPoint" />
          </mxGeometry>
        </mxCell>
        <mxCell id="2UFu5slk8J8PcmMFMOJV-26" value="" style="endArrow=none;html=1;rounded=0;strokeWidth=1;entryX=1;entryY=0.25;entryDx=0;entryDy=0;exitX=0;exitY=0.25;exitDx=0;exitDy=0;" parent="1" source="2UFu5slk8J8PcmMFMOJV-24" target="2UFu5slk8J8PcmMFMOJV-24" edge="1">
          <mxGeometry width="50" height="50" relative="1" as="geometry">
            <mxPoint x="335" y="260" as="sourcePoint" />
            <mxPoint x="385" y="210" as="targetPoint" />
          </mxGeometry>
        </mxCell>
        <mxCell id="2UFu5slk8J8PcmMFMOJV-27" value="=" style="text;html=1;strokeColor=none;fillColor=none;align=center;verticalAlign=middle;whiteSpace=wrap;rounded=0;" parent="1" vertex="1">
          <mxGeometry x="330" y="237" width="60" height="30" as="geometry" />
        </mxCell>
        <mxCell id="2UFu5slk8J8PcmMFMOJV-28" value="" style="endArrow=none;html=1;rounded=0;strokeWidth=1;exitX=0;exitY=0.5;exitDx=0;exitDy=0;" parent="1" edge="1">
          <mxGeometry width="50" height="50" relative="1" as="geometry">
            <mxPoint x="405" y="267" as="sourcePoint" />
            <mxPoint x="385" y="267" as="targetPoint" />
          </mxGeometry>
        </mxCell>
        <mxCell id="2UFu5slk8J8PcmMFMOJV-29" value="Riadková schéma, ladder" style="text;html=1;strokeColor=none;fillColor=none;align=left;verticalAlign=middle;whiteSpace=wrap;rounded=0;" parent="1" vertex="1">
          <mxGeometry x="225" y="300" width="145" height="30" as="geometry" />
        </mxCell>
        <mxCell id="2UFu5slk8J8PcmMFMOJV-30" value="Function block diagram" style="text;html=1;strokeColor=none;fillColor=none;align=left;verticalAlign=middle;whiteSpace=wrap;rounded=0;" parent="1" vertex="1">
          <mxGeometry x="225" y="170" width="135" height="30" as="geometry" />
        </mxCell>
        <mxCell id="2UFu5slk8J8PcmMFMOJV-31" value="&lt;div&gt;&lt;font face=&quot;Lucida Console&quot;&gt;1.&amp;nbsp;&lt;span style=&quot;white-space: pre;&quot;&gt; &lt;/span&gt;IF #A == #B THEN&lt;/font&gt;&lt;/div&gt;&lt;div&gt;&lt;font face=&quot;Lucida Console&quot;&gt;2.&amp;nbsp; &amp;nbsp; &amp;nbsp; &amp;nbsp; &amp;nbsp;&quot;Tag_1&quot; := TRUE;&lt;/font&gt;&lt;/div&gt;&lt;div style=&quot;&quot;&gt;&lt;span style=&quot;background-color: initial;&quot;&gt;&lt;font face=&quot;Lucida Console&quot;&gt;3.&lt;span style=&quot;white-space: pre;&quot;&gt; &lt;/span&gt;END_IF;&lt;/font&gt;&lt;/span&gt;&lt;/div&gt;" style="text;html=1;strokeColor=none;fillColor=none;align=left;verticalAlign=middle;whiteSpace=wrap;rounded=0;" parent="1" vertex="1">
          <mxGeometry x="456" y="208" width="214" height="80" as="geometry" />
        </mxCell>
        <mxCell id="2UFu5slk8J8PcmMFMOJV-32" value="Structured control text" style="text;html=1;strokeColor=none;fillColor=none;align=left;verticalAlign=middle;whiteSpace=wrap;rounded=0;fontFamily=Helvetica;" parent="1" vertex="1">
          <mxGeometry x="440" y="170" width="130" height="30" as="geometry" />
        </mxCell>
      </root>
    </mxGraphModel>
  </diagram>
</mxfile>
